<mxGraphModel><root><mxCell id="0"/><mxCell id="1" parent="0"/><mxCell id="2" value="Utilisateur" style="shape=umlLifeline;perimeter=lifelinePerimeter;whiteSpace=wrap;container=1;dropTarget=0;collapsible=0;recursiveResize=0;outlineConnect=0;portConstraint=eastwest;newEdgeStyle={&quot;edgeStyle&quot;:&quot;elbowEdgeStyle&quot;,&quot;elbow&quot;:&quot;vertical&quot;,&quot;curved&quot;:0,&quot;rounded&quot;:0};size=65;" vertex="1" parent="1"><mxGeometry width="150" height="1030" as="geometry"/></mxCell><mxCell id="3" value="Serveur" style="shape=umlLifeline;perimeter=lifelinePerimeter;whiteSpace=wrap;container=1;dropTarget=0;collapsible=0;recursiveResize=0;outlineConnect=0;portConstraint=eastwest;newEdgeStyle={&quot;edgeStyle&quot;:&quot;elbowEdgeStyle&quot;,&quot;elbow&quot;:&quot;vertical&quot;,&quot;curved&quot;:0,&quot;rounded&quot;:0};size=65;" vertex="1" parent="1"><mxGeometry x="377" width="150" height="1030" as="geometry"/></mxCell><mxCell id="4" value="" style="points=[];perimeter=orthogonalPerimeter;outlineConnect=0;targetShapes=umlLifeline;portConstraint=eastwest;newEdgeStyle={&quot;edgeStyle&quot;:&quot;elbowEdgeStyle&quot;,&quot;elbow&quot;:&quot;vertical&quot;,&quot;curved&quot;:0,&quot;rounded&quot;:0}" vertex="1" parent="3"><mxGeometry x="70" y="NaN" width="10" height="NaN" as="geometry"/></mxCell><mxCell id="5" value="Demande de connexion" style="verticalAlign=bottom;edgeStyle=elbowEdgeStyle;elbow=vertical;curved=0;rounded=0;endArrow=block;" edge="1" parent="1" source="2" target="3"><mxGeometry relative="1" as="geometry"><Array as="points"><mxPoint x="270" y="103"/></Array></mxGeometry></mxCell><mxCell id="6" value="Vérification de l'identité" style="curved=1;endArrow=block;" edge="1" parent="1" source="3" target="3"><mxGeometry relative="1" as="geometry"><Array as="points"><mxPoint x="507" y="151"/><mxPoint x="507" y="181"/></Array></mxGeometry></mxCell><mxCell id="7" value="Demande d'identifiants" style="verticalAlign=bottom;edgeStyle=elbowEdgeStyle;elbow=vertical;curved=0;rounded=0;dashed=1;dashPattern=2 3;endArrow=block;" edge="1" parent="1" source="3" target="2"><mxGeometry relative="1" as="geometry"><Array as="points"><mxPoint x="273" y="229"/></Array></mxGeometry></mxCell><mxCell id="8" value="Envoi des identifiants" style="verticalAlign=bottom;edgeStyle=elbowEdgeStyle;elbow=vertical;curved=0;rounded=0;endArrow=block;" edge="1" parent="1" source="2" target="3"><mxGeometry relative="1" as="geometry"><Array as="points"><mxPoint x="270" y="277"/></Array></mxGeometry></mxCell><mxCell id="9" value="Vérification des identifiants" style="curved=1;endArrow=block;" edge="1" parent="1" source="3" target="3"><mxGeometry relative="1" as="geometry"><Array as="points"><mxPoint x="507" y="325"/><mxPoint x="507" y="355"/></Array></mxGeometry></mxCell><mxCell id="10" value="Succès de la connexion" style="verticalAlign=bottom;edgeStyle=elbowEdgeStyle;elbow=vertical;curved=0;rounded=0;dashed=1;dashPattern=2 3;endArrow=block;" edge="1" parent="1" source="3" target="2"><mxGeometry relative="1" as="geometry"><Array as="points"><mxPoint x="273" y="403"/></Array></mxGeometry></mxCell><mxCell id="11" value="Demande d'inscription" style="verticalAlign=bottom;edgeStyle=elbowEdgeStyle;elbow=vertical;curved=0;rounded=0;endArrow=block;" edge="1" parent="1" source="2" target="3"><mxGeometry relative="1" as="geometry"><Array as="points"><mxPoint x="270" y="451"/></Array></mxGeometry></mxCell><mxCell id="12" value="Vérification des données" style="curved=1;endArrow=block;" edge="1" parent="1" source="3" target="3"><mxGeometry relative="1" as="geometry"><Array as="points"><mxPoint x="507" y="499"/><mxPoint x="507" y="529"/></Array></mxGeometry></mxCell><mxCell id="13" value="Demande d'informations complémentaires" style="verticalAlign=bottom;edgeStyle=elbowEdgeStyle;elbow=vertical;curved=0;rounded=0;dashed=1;dashPattern=2 3;endArrow=block;" edge="1" parent="1" source="3" target="2"><mxGeometry relative="1" as="geometry"><Array as="points"><mxPoint x="273" y="577"/></Array></mxGeometry></mxCell><mxCell id="14" value="Envoi des données d'inscription" style="verticalAlign=bottom;edgeStyle=elbowEdgeStyle;elbow=vertical;curved=0;rounded=0;endArrow=block;" edge="1" parent="1" source="2" target="3"><mxGeometry relative="1" as="geometry"><Array as="points"><mxPoint x="270" y="625"/></Array></mxGeometry></mxCell><mxCell id="15" value="Enregistrement des données" style="curved=1;endArrow=block;" edge="1" parent="1" source="3" target="3"><mxGeometry relative="1" as="geometry"><Array as="points"><mxPoint x="507" y="673"/><mxPoint x="507" y="703"/></Array></mxGeometry></mxCell><mxCell id="16" value="Inscription réussie" style="verticalAlign=bottom;edgeStyle=elbowEdgeStyle;elbow=vertical;curved=0;rounded=0;dashed=1;dashPattern=2 3;endArrow=block;" edge="1" parent="1" source="3" target="2"><mxGeometry relative="1" as="geometry"><Array as="points"><mxPoint x="273" y="751"/></Array></mxGeometry></mxCell><mxCell id="17" value="Demande de déconnexion" style="verticalAlign=bottom;edgeStyle=elbowEdgeStyle;elbow=vertical;curved=0;rounded=0;endArrow=block;" edge="1" parent="1" source="2" target="3"><mxGeometry relative="1" as="geometry"><Array as="points"><mxPoint x="270" y="799"/></Array></mxGeometry></mxCell><mxCell id="18" value="Traitement de la déconnexion" style="curved=1;endArrow=block;" edge="1" parent="1" source="3" target="3"><mxGeometry relative="1" as="geometry"><Array as="points"><mxPoint x="507" y="847"/><mxPoint x="507" y="877"/></Array></mxGeometry></mxCell><mxCell id="19" value="Déconnexion réussie" style="verticalAlign=bottom;edgeStyle=elbowEdgeStyle;elbow=vertical;curved=0;rounded=0;dashed=1;dashPattern=2 3;endArrow=block;" edge="1" parent="1" source="3" target="2"><mxGeometry relative="1" as="geometry"><Array as="points"><mxPoint x="273" y="925"/></Array></mxGeometry></mxCell></root></mxGraphModel>